PathFileType	4	(X/Y/Z)	D:\TRACE\spotREDO_2-26-24\spot_Both_Motion_3_5-platform.trc
DataRate	CameraRate	NumFrames	NumMarkers	Units	OrigDataRate	OrigDataStartFrame	OrigNumFrames
100.00	100.00	      42	5	mm	100.00	4376	      7000
Frame#	Time	Left_Front			Right_Front			Left_Aft			Right_Aft			Post			
		X1	Y1	Z1	X2	Y2	Z2	X3	Y3	Z3	X4	Y4	Z4	X5	Y5	Z5	

4376	43.750	-691.61383	-69.51501	-588.77777	723.55975	-52.03453	-504.42163	-763.55054	69.85445	621.69232	805.65540	77.55685	627.02167	2.89895	508.22076	-1060.39160	
4377	43.760	-691.19110	-69.34401	-588.79492	723.67529	-51.69074	-504.27133	-763.42664	69.51907	621.86090	805.82062	77.26743	627.37646	3.08627	509.03967	-1059.97925	
4378	43.770	-691.50629	-68.50696	-588.58990	723.57880	-51.27235	-504.23215	-763.41223	69.31861	621.93127	806.02600	76.94319	627.49982	3.50660	509.45862	-1059.70435	
4379	43.780	-691.51477	-67.92560	-588.45709	723.53644	-51.04998	-504.34500	-763.57263	69.01595	621.92242	806.03735	76.81890	627.64435	3.06308	510.32104	-1059.35352	
4380	43.790	-691.53717	-67.40134	-588.43060	723.70020	-50.54272	-504.23755	-763.45837	68.53648	622.22418	806.14856	76.55698	627.71118	3.33852	510.96988	-1059.07300	
4381	43.800	-691.70905	-66.96698	-588.40271	723.84375	-50.05712	-504.31750	-763.27917	68.21402	622.40094	806.03998	75.76714	627.87634	3.31534	511.55786	-1058.59509	
4382	43.810	-691.61975	-66.84352	-588.41644	723.85815	-49.78839	-504.39969	-763.20221	67.81851	622.48950	806.12769	75.11863	627.98218	3.78501	512.31354	-1058.23840	
4383	43.820	-691.41339	-66.60437	-588.27710	724.55157	-49.66281	-504.08981	-763.13245	67.35666	622.71698	806.13654	74.72555	628.01672	3.54226	513.22638	-1057.54492	
4384	43.830	-691.12231	-66.16177	-588.21704	724.29480	-48.99231	-504.42511	-763.03955	67.13347	622.89203	806.21814	74.36700	628.06525	3.66993	513.59918	-1057.12268	
4385	43.840	-690.18048	-66.10723	-588.40778	724.34662	-48.83107	-504.25409	-762.90424	66.83546	623.08051	806.30658	74.19117	628.20605	3.91708	514.39819	-1056.51892	
4386	43.850	-690.42242	-65.53558	-588.31195	724.13678	-48.47620	-504.17004	-762.91095	66.67631	623.18048	806.52948	73.89333	628.36877	4.09049	515.16876	-1056.08289	
4387	43.860	-690.55811	-65.23177	-588.25360	724.26160	-48.17461	-504.05344	-763.02594	66.43097	623.28448	806.59894	73.52458	628.58099	3.87235	515.87317	-1055.65601	
4388	43.870	-690.57825	-65.05212	-588.22150	724.37744	-48.06000	-503.91302	-762.79388	65.42475	623.26141	806.69604	73.04753	628.80267	4.01423	516.38965	-1055.32959	
4389	43.880	-690.49329	-64.71815	-588.15143	724.61377	-47.78085	-503.75314	-762.60718	65.18705	623.36798	806.63965	72.56430	628.83917	3.96026	517.19568	-1054.78662	
4390	43.890	-690.07416	-64.28883	-587.97815	724.68799	-47.44688	-503.66504	-762.52124	64.92426	623.53784	806.76416	72.34506	628.91248	4.03008	517.86188	-1054.43567	
4391	43.900	-689.78119	-63.86920	-587.95850	724.71649	-46.80584	-503.66794	-762.39038	64.71215	623.70831	806.81421	71.98598	628.98083	4.55504	518.25751	-1053.92627	
4392	43.910	-689.62939	-63.57644	-588.01453	724.80615	-46.59234	-503.56802	-762.24310	64.37518	623.78314	807.04956	71.55851	629.14825	4.92391	518.63458	-1054.17468	
4393	43.920	-689.59198	-63.46679	-588.02637	724.82965	-46.33161	-503.65088	-762.15918	63.92997	623.89600	807.23724	71.22620	629.30878	4.88430	519.26324	-1054.03613	
4394	43.930	-689.71252	-63.16759	-587.98199	724.88208	-46.17871	-503.56128	-762.09125	63.66639	624.03986	807.35089	71.05098	629.35944	5.15513	519.86157	-1053.75793	
4395	43.940	-689.82477	-62.68682	-587.89807	725.00354	-46.01746	-503.52246	-761.90497	63.39676	624.13318	807.39807	70.83539	629.42279	5.40198	520.35718	-1053.51025	
4396	43.950	-689.62024	-62.16828	-587.71588	725.38831	-45.72419	-503.38245	-761.70697	63.15936	624.22717	807.53601	70.56942	629.55920	5.68749	520.72314	-1053.21924	
4397	43.960	-689.44598	-61.83013	-587.58759	725.40320	-45.51482	-503.34680	-761.55823	62.95683	624.37079	807.76520	70.20457	629.72833	5.70177	521.18103	-1052.94678	
4398	43.970	-689.27441	-61.52893	-587.61743	725.55920	-45.27945	-503.30942	-761.69745	62.44447	624.52490	808.28204	70.19171	630.19159	5.97151	521.87408	-1052.31287	
4399	43.980	-689.21277	-61.33767	-587.58801	725.66077	-44.80039	-503.30420	-761.64423	62.32166	624.58069	808.13373	69.80926	630.24701	5.82729	522.37103	-1052.02246	
4400	43.990	-689.10590	-61.18014	-587.68640	725.84363	-44.44046	-503.26883	-761.50647	62.20901	624.51324	808.26288	69.66077	630.56268	5.69034	522.85846	-1051.74500	
4401	44.000	-689.08459	-61.03823	-587.69006	725.95172	-44.32477	-503.30627	-760.84003	61.66459	624.65430	808.40454	69.56598	630.60736	6.04814	523.31616	-1051.44153	
4402	44.010	-688.86200	-60.58215	-587.51697	726.19049	-44.18124	-503.17059	-760.71173	61.32477	624.79498	808.29291	68.95227	630.25299	6.01088	523.86560	-1051.01465	
4403	44.020	-688.58173	-60.23324	-587.44397	726.35199	-43.98372	-503.05231	-760.45850	61.04945	624.83453	808.59247	68.69271	630.29370	6.33322	524.07135	-1050.89221	
4404	44.030	-688.35809	-59.94721	-587.41150	726.54596	-43.83551	-502.91898	-760.31116	60.77601	624.83594	808.77374	68.44166	630.38513	6.59569	524.57904	-1050.70715	
4405	44.040	-688.12494	-59.77245	-587.39172	726.71704	-43.67204	-502.95700	-760.07861	60.64689	624.88727	809.14368	68.10477	630.55389	6.96958	524.97064	-1050.36963	
4406	44.050	-687.93182	-59.71579	-587.37427	726.91760	-43.51550	-502.84320	-759.86536	60.39877	624.98657	809.30225	67.92316	630.55511	7.02967	525.30627	-1050.12048	
4407	44.060	-687.73828	-59.57438	-587.32507	727.24481	-43.20485	-502.68460	-759.75232	60.16119	625.28333	809.48920	67.75993	630.66901	7.10455	525.78656	-1049.97937	
4408	44.070	-687.47119	-59.39071	-587.18671	727.41748	-43.03674	-502.63910	-759.44781	59.83528	625.41852	809.72174	67.49785	630.73651	7.47804	526.31927	-1049.78540	
4409	44.080	-687.12561	-59.14871	-587.12073	727.42084	-42.54595	-502.60648	-759.41400	59.62052	625.50079	810.16370	67.12114	630.71191	8.05967	526.83588	-1049.35608	
4410	44.090	-686.94275	-58.79860	-587.16370	727.58783	-42.44312	-502.75162	-759.32336	59.60605	625.33307	810.32318	66.85892	630.75665	7.75450	527.20789	-1049.32764	
4411	44.100	-686.74255	-58.47390	-587.11163	727.84656	-42.23545	-502.86902	-759.23633	59.46955	625.43811	810.43726	66.75395	630.83380	7.84224	527.52283	-1049.14197	
4412	44.110	-686.56696	-58.25714	-587.13928	728.06512	-42.11256	-502.72714	-758.91180	59.00240	625.65863	810.52374	66.70467	630.89514	8.02271	528.07324	-1048.56958	
4413	44.120	-686.38348	-58.13720	-587.08081	728.23010	-41.89903	-502.60889	-758.69922	58.86060	625.69153	810.71808	66.57706	631.00818	8.21476	528.48444	-1047.88550	
4414	44.130	-685.94110	-58.64970	-586.60034	728.32971	-41.63518	-502.44424	-758.34937	58.68743	625.74097	810.93109	66.43418	631.01257	8.53244	528.81964	-1047.49841	
4415	44.140	-685.63080	-58.62058	-586.67975	728.64307	-41.55521	-502.44693	-757.98059	58.53616	625.79865	811.17725	66.27400	631.08539	8.68084	529.05634	-1047.35303	
4416	44.150	-685.54761	-58.43803	-586.55005	728.90265	-41.56950	-502.59525	-757.95801	58.38674	625.75842	811.52753	66.10838	631.23926	9.18192	529.33124	-1047.10059	
4417	44.160	-685.31146	-58.29426	-586.56696	729.33453	-41.59371	-502.48651	-757.83331	58.45351	625.68604	811.79163	65.87292	631.28827	9.40722	529.47662	-1047.00427	
